<?xml version="1.0" encoding="utf-8"?>
<svg version="1.1" xmlns:xlink="http://www.w3.org/1999/xlink" width="100px" height="100px" xmlns="http://www.w3.org/2000/svg">
  <g transform="matrix(1 0 0 1 9 -5 )">
    <path d="M -9 5  L 91 5  L 91 105  L -9 105  L -9 5  " fill-rule="nonzero" fill="#cccccc" stroke="none" />
    <path d="M -2 12  L 84 12  L 84 98  L -2 98  L -2 12  " fill-rule="nonzero" fill="#ffffff" stroke="none" />
    <path d="M 50.5 35  C 46.3 35  43 31.7  43 27.5  C 43 23.3  46.3 20  50.5 20  C 54.7 20  58 23.3  58 27.5  C 58 31.7  54.7 35  50.5 35  " fill-rule="nonzero" fill="#cccccc" stroke="none" />
    <path d="M 1 96  L 1 51.45  L 21.25 31.2  L 49.6 47.4  L 65.8 43.35  L 82 47.4  L 82 96  L 1 96  " fill-rule="nonzero" fill="#169bd5" stroke="none" />
  </g>
</svg>