<?xml version="1.0" encoding="utf-8"?>
<svg version="1.1" xmlns:xlink="http://www.w3.org/1999/xlink" width="12px" height="13px" xmlns="http://www.w3.org/2000/svg">
  <g transform="matrix(1 0 0 1 -162 -167 )">
    <path d="M 168 167  C 171.36 167  174 169.86  174 173.5  C 174 177.14  171.36 180  168 180  C 164.64 180  162 177.14  162 173.5  C 162 169.86  164.64 167  168 167  Z " fill-rule="nonzero" fill="#ffffff" stroke="none" />
    <path d="M 168 167.5  C 171.08 167.5  173.5 170.14  173.5 173.5  C 173.5 176.86  171.08 179.5  168 179.5  C 164.92 179.5  162.5 176.86  162.5 173.5  C 162.5 170.14  164.92 167.5  168 167.5  Z " stroke-width="1" stroke="#797979" fill="none" />
  </g>
</svg>